#!OML:ASF E:/inclinewalkrobotboard/Project1/Captureday1/Session1/subject1.ASF
:FULLY-SPECIFIED
:DEGREES
51
root 0 0 0 1.3506030632479065 -8.787165206093297 0.8643373120180624
lowerback 1.525399212008602 -1.2748062659999242 -2.862902607824834
upperback -1.0126396424228659 -1.575847943802556 2.210115722903868
thorax -1.6741567682237297 -0.7707474096878111 3.862044230050357
lowerneck -26.099570364837703 -1.7597455962573298 -7.11034436190527
upperneck 13.131458135367966 -0.5017291483921972 4.214798813498825
head 8.37489281777787 -0.1654692458533797 2.5286619896015754
rclavicle -4.611970125788385E-15 -6.833118124595643E-16
rhumerus -31.655666760395935 -2.488070046707789 -80.8778434266696
rradius 30.719945995863522
rwrist 18.037386153513363
rhand -18.192232425210648 9.822884437093657
rfingers 7.125019999999953
rthumb 8.087222352516672 -19.986066283413454
lclavicle -9.565708911604541E-16 -1.0399509060712985E-15
lhumerus -16.35452860137447 5.333659010257027 92.78823032800162
lradius 58.86661171754591
lwrist -3.144027743319317
lhand -32.290240429021594 18.006229961690572
lfingers 7.1250200000000055
lthumb -5.529827194391881 47.72570392854287
rfemur 6.9465482670169525 8.600688330325386 38.404075196247206
rtibia 21.998941805739772
rfoot -22.13784657427849 -7.122332220521849
rtoes 3.0420665834543996
lfemur -28.27301153185349 0.6717902668972511 -11.763138312720221
ltibia 44.68708763892921
lfoot -3.8871735241839227 -0.9844772078111288
ltoes -3.2677627687390034
52
root 0 0 0 1.3590700002574931 -8.759061596068316 0.8848330872686299
lowerback 1.5024653912644041 -1.268724670268114 -2.891221945569502
upperback -1.0340714959733035 -1.565962120897286 2.216593282820093
thorax -1.6829042793428455 -0.7648225456020907 3.886357326317651
lowerneck -26.22267291843285 -1.8100301403670682 -7.141579206344024
upperneck 12.67286806069359 -0.590356590855989 4.351002104534212
head 8.228647536532488 -0.1751978534675333 2.562068074647227
rclavicle -5.2889961445975504E-15 -1.3421630788895893E-15
rhumerus -31.452515944847754 -1.7527432459684418 -80.94160635994912
rradius 30.83439261855331
rwrist 17.852895905144287
rhand -18.359016742274285 9.881187717098754
rfingers 7.125019999999954
rthumb 7.926693455536908 -19.940905821385993
lclavicle -9.752140514071058E-16 -1.0238665435738176E-15
lhumerus -14.635644346124808 6.615267569329869 91.86510441368334
lradius 59.03531067401666
lwrist -3.782878931862056
lhand -32.68509447096865 17.74243766789192
lfingers 7.125020000000006
lthumb -5.910399488035138 47.4337812124573
rfemur 8.64546531485424 8.203906587611945 37.983707633020856
rtibia 23.829210555134573
rfoot -22.120712134305776 -6.5898056072229885
rtoes 0.19806614271803147
lfemur -31.22412512905471 -1.668737987827993 -10.45785095567383
ltibia 34.084147987403114
lfoot -4.360011452307728 1.8621755843202037
ltoes -1.5529777328974763
53
root 0 0 0 1.3665164730579717 -8.745883679847386 0.8963925862318809
lowerback 1.4814233247714437 -1.2649463254712754 -2.9093460262521846
upperback -1.0471801011091166 -1.5600141648132142 2.2184067141540558
thorax -1.6840038139181195 -0.7613790298571375 3.8999374029144938
lowerneck -26.277842202896043 -1.8405958761286838 -7.167459330825629
upperneck 12.44755033913887 -0.6441241880068517 4.432815608950479
head 8.15689082456526 -0.18322661183918135 2.5840063201325516
rclavicle -5.9009382339106394E-15 -1.6527089261733109E-15
rhumerus -31.36808093126427 -1.426188156712322 -80.95713592654606
rradius 30.877468034699493
rwrist 17.778533293840724
rhand -18.43214025192632 9.910104686128895
rfingers 7.125019999999955
rthumb 7.856232459576363 -19.9200629104402
lclavicle -1.3861042735817732E-15 -1.0112997631771814E-15
lhumerus -13.299230950330484 7.596326676499769 91.13083107406536
lradius 59.1940127987599
lwrist -4.27245344423506
lhand -32.988378042265424 17.53615953107257
lfingers 7.125020000000007
lthumb -6.201118597896973 47.20709812625371
rfemur 11.326689304774222 7.865931298230324 36.4855890394166
rtibia 26.83374524267878
rfoot -19.55303122778213 -5.189699385324245
rtoes -3.2150321038148775
lfemur -31.903118490154398 -3.7308912644134478 -9.357056287366198
ltibia 26.128826558410843
lfoot -4.67782969414353 3.4820461924942765
ltoes -1.8399238656904888
54
root 0 0 0 1.3728444386420038 -8.749770863159661 0.9032094687772579
lowerback 1.450915968368853 -1.263049529181169 -2.923769418587488
upperback -1.0616436040123847 -1.5573944716796395 2.2170701441950844
thorax -1.6810595823679015 -0.7596011991231673 3.90804144312266
lowerneck -26.284227460992813 -1.8550546876558502 -7.1930294547513105
upperneck 12.399761041393365 -0.6673385848909874 4.474459454259833
head 8.143288437817034 -0.18898283045664743 2.5988531715876726
rclavicle -6.775140998070651E-15 -1.7529147592275981E-15
rhumerus -31.34998079372683 -1.3304519253869156 -80.94540905126964
rradius 30.879479568975082
rwrist 17.75829367043064
rhand -18.453300204475823 9.923143526727841
rfingers 7.125019999999955
rthumb 7.835662578386952 -19.910608681736548
lclavicle -2.034368415827323E-15 -9.60647347282704E-16
lhumerus -12.139663424505796 8.36531991496063 90.46178085351124
lradius 59.392822331776266
lwrist -4.665744840646259
lhand -33.238274205117115 17.38729244558164
lfingers 7.125020000000007
lthumb -6.439709380899574 47.04259949645574
rfemur 13.480421043111066 6.966119152510447 33.7428828631375
rtibia 34.194745231559665
rfoot -14.357150349440657 -3.189796542426666
rtoes -5.750835109685946
lfemur -30.978529436883143 -4.441851091603302 -9.553243120989938
ltibia 23.64808439762149
lfoot -4.579264574566737 3.4911805740874953
ltoes -1.7515807679332163
55
root 0 0 0 1.377432430689221 -8.7598063772458 0.9090583219362084
lowerback 1.4160621176123964 -1.2618167141769685 -2.938020271910337
upperback -1.0791459878846454 -1.556014557553162 2.2154575974190247
thorax -1.679075448716891 -0.7581271723547313 3.9154856503398245
lowerneck -26.277392219351512 -1.8624549184492352 -7.2170766026392075
upperneck 12.402054057492546 -0.6769866350777027 4.501703884164094
head 8.145999967029512 -0.1925357625863415 2.6111192798037828
rclavicle -7.580134025538135E-15 -1.6031140873957424E-15
rhumerus -31.37065092161708 -1.3952963278019999 -80.91748221623928
rradius 30.853868796202917
rwrist 17.756074166803355
rhand -18.44171008248931 9.93716772013285
rfingers 7.125019999999954
rthumb 7.846601037864796 -19.899358008685777
lclavicle -2.6144682079497355E-15 -8.328377216010969E-16
lhumerus -11.128664304056867 8.962192352631078 89.85534574892807
lradius 59.60602004966244
lwrist -4.970930075889467
lhand -33.436123986890536 17.296264717721012
lfingers 7.125020000000008
lthumb -6.628972417622403 46.939091560968485
rfemur 10.98515698145926 5.3725957348498055 31.401370322452564
rtibia 43.37837849135563
rfoot -8.058781295403897 -1.0417532508501832
rtoes -4.256846389898726
lfemur -28.445351537520175 -4.590894673563421 -11.174926180849493
ltibia 24.340417473900647
lfoot -3.6366150016066836 1.9370388670327099
ltoes -0.09942912364436474
